<svg width="133" height="26" viewBox="0 0 133 26" fill="none"
    xmlns="http://www.w3.org/2000/svg">
    <g clip-path="url(#clip0_3303_823)">
        <path d="M43.8706 24.4956C42.292 24.4956 40.8669 24.1667 39.5953 23.509C38.3237 22.8512 37.3152 21.8975 36.5698 20.6478C35.8462 19.3981 35.4845 17.8963 35.4845 16.1424V15.6819C35.4845 13.928 35.8462 12.4262 36.5698 11.1765C37.3152 9.92677 38.3237 8.97305 39.5953 8.31532C40.8669 7.65759 42.292 7.32872 43.8706 7.32872C45.4272 7.32872 46.7537 7.60278 47.8499 8.15089C48.968 8.699 49.8669 9.45539 50.5466 10.4201C51.2263 11.3628 51.6647 12.4262 51.8621 13.6101L48.2116 14.3665C48.1239 13.6868 47.9157 13.0729 47.5868 12.5248C47.2579 11.9548 46.7866 11.5053 46.1727 11.1765C45.5807 10.8476 44.8462 10.6832 43.9693 10.6832C43.0704 10.6832 42.2592 10.8805 41.5356 11.2751C40.8341 11.6478 40.275 12.2179 39.8584 12.9852C39.4638 13.7526 39.2665 14.6734 39.2665 15.7477V16.0766C39.2665 17.1509 39.4638 18.0717 39.8584 18.8391C40.275 19.5845 40.8341 20.1545 41.5356 20.5492C42.2592 20.9438 43.0704 21.1411 43.9693 21.1411C45.3067 21.1411 46.3152 20.8013 46.9948 20.1216C47.6964 19.4201 48.1349 18.5212 48.3103 17.4249L51.9607 18.28C51.6976 19.4201 51.2263 20.4615 50.5466 21.4042C49.8669 22.347 48.968 23.1034 47.8499 23.6734C46.7537 24.2215 45.4272 24.4956 43.8706 24.4956ZM61.773 24.4956C60.1506 24.4956 58.6926 24.1667 57.3991 23.509C56.1275 22.8293 55.119 21.8756 54.3735 20.6478C53.65 19.3981 53.2883 17.9073 53.2883 16.1752V15.6491C53.2883 13.917 53.65 12.4262 54.3735 11.1765C55.119 9.92677 56.1275 8.97305 57.3991 8.31532C58.6926 7.65759 60.1506 7.32872 61.773 7.32872C63.3954 7.32872 64.8425 7.65759 66.1141 8.31532C67.3857 8.97305 68.3833 9.92677 69.1068 11.1765C69.8522 12.4262 70.2249 13.917 70.2249 15.6491V16.1752C70.2249 17.9073 69.8522 19.3981 69.1068 20.6478C68.3833 21.8756 67.3857 22.8293 66.1141 23.509C64.8425 24.1667 63.3954 24.4956 61.773 24.4956ZM61.773 21.1411C63.1543 21.1411 64.2834 20.7026 65.1604 19.8257C66.0373 18.9268 66.4758 17.6771 66.4758 16.0766V15.7477C66.4758 14.1472 66.0373 12.9085 65.1604 12.0315C64.2834 11.1326 63.1543 10.6832 61.773 10.6832C60.3918 10.6832 59.2627 11.1326 58.3857 12.0315C57.5087 12.9085 57.0702 14.1472 57.0702 15.7477V16.0766C57.0702 17.6771 57.5087 18.9268 58.3857 19.8257C59.2627 20.7026 60.3918 21.1411 61.773 21.1411ZM72.6842 24.0352V7.78913H76.4004V10.0583H76.9595C77.2445 9.44443 77.7597 8.86343 78.5052 8.31532C79.2506 7.76721 80.3797 7.49315 81.8925 7.49315C83.1422 7.49315 84.2494 7.77817 85.214 8.34821C86.1787 8.91824 86.9241 9.70752 87.4503 10.716C87.9984 11.7246 88.2725 12.9195 88.2725 14.3007V24.0352H84.4905V14.5967C84.4905 13.2812 84.1617 12.3056 83.5039 11.6698C82.8681 11.012 81.9583 10.6832 80.7743 10.6832C79.4369 10.6832 78.3846 11.1326 77.6172 12.0315C76.8499 12.9085 76.4662 14.1692 76.4662 15.8135V24.0352H72.6842ZM94.9398 24.0352L89.6121 7.78913H93.6243L97.6365 21.2727H98.1955L102.241 7.78913H106.253L100.925 24.0352H94.9398ZM114.389 24.4956C113.052 24.4956 111.813 24.1777 110.673 23.5419C109.555 22.8841 108.656 21.9304 107.976 20.6807C107.296 19.431 106.957 17.9292 106.957 16.1752V15.6491C106.957 13.8951 107.296 12.3933 107.976 11.1436C108.656 9.89388 109.566 8.95113 110.706 8.31532C111.846 7.65759 113.073 7.32872 114.389 7.32872C115.924 7.32872 117.097 7.59181 117.908 8.118C118.719 8.64419 119.322 9.24711 119.717 9.92677H120.276V7.78913H123.959V19.9243C123.959 20.5821 124.266 20.9109 124.88 20.9109H126.228V24.0352H123.17C122.38 24.0352 121.734 23.8159 121.229 23.3774C120.747 22.9389 120.506 22.336 120.506 21.5687V21.47H119.947C119.574 22.2812 118.96 22.9937 118.105 23.6076C117.25 24.1996 116.011 24.4956 114.389 24.4956ZM115.507 21.2069C116.888 21.2069 118.017 20.7684 118.894 19.8914C119.793 18.9925 120.243 17.7209 120.243 16.0766V15.7477C120.243 14.0815 119.793 12.8098 118.894 11.9329C117.995 11.0559 116.866 10.6174 115.507 10.6174C114.148 10.6174 113.008 11.0559 112.087 11.9329C111.188 12.8098 110.738 14.0815 110.738 15.7477V16.0766C110.738 17.7209 111.188 18.9925 112.087 19.8914C113.008 20.7684 114.148 21.2069 115.507 21.2069ZM127.926 24.0352V7.78913H131.708V24.0352H127.926ZM129.801 5.71727C129.121 5.71727 128.529 5.49803 128.025 5.05954C127.542 4.59912 127.301 3.9962 127.301 3.25077C127.301 2.50534 127.542 1.91338 128.025 1.47489C128.529 1.01448 129.121 0.78427 129.801 0.78427C130.524 0.78427 131.116 1.01448 131.577 1.47489C132.059 1.91338 132.3 2.50534 132.3 3.25077C132.3 3.9962 132.059 4.59912 131.577 5.05954C131.116 5.49803 130.524 5.71727 129.801 5.71727Z" fill="white"/>
        <rect x="8.71484" y="13.5742" width="11.017" height="11.017" rx="1.4799" fill="#1FB755"/>
        <rect x="19.4033" y="5.35352" width="7.72837" height="7.72837" rx="1.4799" fill="#1FB755"/>
        <path d="M19.4021 11.3548L21.3753 13.0814C21.3753 13.0814 20.7437 13.1074 20.3792 13.6535C20.0146 14.1995 19.7315 15.2193 19.7315 15.2193L17.6761 13.5749C17.6761 13.5749 18.7584 13.3609 19.123 12.8148C19.4875 12.2688 19.4021 11.3548 19.4021 11.3548Z" fill="#1FB755"/>
        <g opacity="0.2">
            <rect x="13.2227" y="10.3027" width="7.90967" height="7.90967" rx="1.4799" transform="rotate(180 13.2227 10.3027)" fill="#1FB755"/>
            <rect x="5.54895" y="16.1484" width="5.54857" height="5.54857" rx="1.4799" transform="rotate(180 5.54895 16.1484)" fill="#1FB755"/>
            <path d="M5.54979 11.8352L4.13313 10.5956C4.13313 10.5956 4.58657 10.5769 4.84829 10.1848C5.11 9.7928 5.31328 9.06068 5.31328 9.06068L6.78896 10.2412C6.78896 10.2412 6.0119 10.3949 5.75018 10.7869C5.48846 11.179 5.54979 11.8352 5.54979 11.8352Z" fill="#1FB755"/>
        </g>
    </g>
    <defs>
        <clipPath id="clip0_3303_823">
            <rect width="133" height="26" fill="white"/>
        </clipPath>
    </defs>
</svg>
