<svg width="145" height="29" viewBox="0 0 145 29" fill="none" xmlns="http://www.w3.org/2000/svg">
<g clip-path="url(#clip0_3307_959)">
<path d="M47.8288 26.9912C46.1078 26.9912 44.5541 26.6327 43.1678 25.9156C41.7814 25.1985 40.6819 24.1588 39.8692 22.7963C39.0804 21.4339 38.686 19.7965 38.686 17.8843V17.3824C38.686 15.4702 39.0804 13.8328 39.8692 12.4704C40.6819 11.1079 41.7814 10.0682 43.1678 9.35109C44.5541 8.63401 46.1078 8.27547 47.8288 8.27547C49.5259 8.27547 50.972 8.57426 52.1671 9.17182C53.3861 9.76939 54.3661 10.594 55.1071 11.6457C55.8481 12.6736 56.3262 13.8328 56.5413 15.1236L52.5615 15.9482C52.4659 15.2072 52.2388 14.538 51.8803 13.9404C51.5217 13.3189 51.0078 12.8289 50.3386 12.4704C49.6932 12.1118 48.8925 11.9326 47.9363 11.9326C46.9563 11.9326 46.0719 12.1477 45.2832 12.5779C44.5183 12.9843 43.9088 13.6058 43.4546 14.4423C43.0244 15.2789 42.8092 16.2828 42.8092 17.4541V17.8126C42.8092 18.9838 43.0244 19.9877 43.4546 20.8243C43.9088 21.637 44.5183 22.2585 45.2832 22.6887C46.0719 23.119 46.9563 23.3341 47.9363 23.3341C49.3944 23.3341 50.4939 22.9636 51.2349 22.2226C51.9998 21.4578 52.4778 20.4778 52.6691 19.2826L56.6488 20.2148C56.362 21.4578 55.8481 22.5931 55.1071 23.6209C54.3661 24.6488 53.3861 25.4734 52.1671 26.0949C50.972 26.6924 49.5259 26.9912 47.8288 26.9912ZM67.3465 26.9912C65.5777 26.9912 63.9882 26.6327 62.5779 25.9156C61.1916 25.1746 60.092 24.1349 59.2793 22.7963C58.4906 21.4339 58.0962 19.8085 58.0962 17.9202V17.3465C58.0962 15.4582 58.4906 13.8328 59.2793 12.4704C60.092 11.1079 61.1916 10.0682 62.5779 9.35109C63.9882 8.63401 65.5777 8.27547 67.3465 8.27547C69.1153 8.27547 70.6928 8.63401 72.0792 9.35109C73.4655 10.0682 74.5531 11.1079 75.3419 12.4704C76.1546 13.8328 76.5609 15.4582 76.5609 17.3465V17.9202C76.5609 19.8085 76.1546 21.4339 75.3419 22.7963C74.5531 24.1349 73.4655 25.1746 72.0792 25.9156C70.6928 26.6327 69.1153 26.9912 67.3465 26.9912ZM67.3465 23.3341C68.8523 23.3341 70.0833 22.8561 71.0394 21.9C71.9955 20.92 72.4736 19.5575 72.4736 17.8126V17.4541C72.4736 15.7092 71.9955 14.3587 71.0394 13.4026C70.0833 12.4226 68.8523 11.9326 67.3465 11.9326C65.8406 11.9326 64.6096 12.4226 63.6535 13.4026C62.6974 14.3587 62.2194 15.7092 62.2194 17.4541V17.8126C62.2194 19.5575 62.6974 20.92 63.6535 21.9C64.6096 22.8561 65.8406 23.3341 67.3465 23.3341ZM79.2421 26.4893V8.77743H83.2936V11.2513H83.9031C84.2139 10.5821 84.7756 9.94866 85.5883 9.35109C86.401 8.75353 87.6319 8.45474 89.2812 8.45474C90.6437 8.45474 91.8508 8.76548 92.9025 9.38694C93.9542 10.0084 94.7669 10.8689 95.3405 11.9684C95.9381 13.0679 96.2369 14.3706 96.2369 15.8765V26.4893H92.1137V16.1992C92.1137 14.765 91.7551 13.7014 91.0381 13.0082C90.3449 12.2911 89.3529 11.9326 88.0622 11.9326C86.6041 11.9326 85.4568 12.4226 84.6202 13.4026C83.7836 14.3587 83.3653 15.7331 83.3653 17.5258V26.4893H79.2421ZM103.506 26.4893L97.6974 8.77743H102.072L106.446 23.4775H107.055L111.465 8.77743H115.839L110.031 26.4893H103.506ZM124.71 26.9912C123.252 26.9912 121.901 26.6446 120.658 25.9514C119.439 25.2344 118.459 24.1946 117.718 22.8322C116.977 21.4697 116.607 19.8324 116.607 17.9202V17.3465C116.607 15.4343 116.977 13.797 117.718 12.4345C118.459 11.0721 119.451 10.0443 120.694 9.35109C121.937 8.63401 123.275 8.27547 124.71 8.27547C126.383 8.27547 127.662 8.5623 128.546 9.13597C129.43 9.70963 130.088 10.367 130.518 11.1079H131.127V8.77743H135.143V22.0075C135.143 22.7246 135.478 23.0831 136.147 23.0831H137.617V26.4893H134.283C133.422 26.4893 132.717 26.2502 132.167 25.7722C131.641 25.2941 131.378 24.6368 131.378 23.8002V23.6927H130.769C130.363 24.577 129.693 25.3539 128.761 26.0232C127.829 26.6685 126.478 26.9912 124.71 26.9912ZM125.929 23.4058C127.435 23.4058 128.666 22.9278 129.622 21.9717C130.602 20.9917 131.092 19.6053 131.092 17.8126V17.4541C131.092 15.6375 130.602 14.2511 129.622 13.295C128.642 12.3389 127.411 11.8609 125.929 11.8609C124.447 11.8609 123.204 12.3389 122.2 13.295C121.22 14.2511 120.73 15.6375 120.73 17.4541V17.8126C120.73 19.6053 121.22 20.9917 122.2 21.9717C123.204 22.9278 124.447 23.4058 125.929 23.4058ZM139.468 26.4893V8.77743H143.591V26.4893H139.468ZM141.512 6.51863C140.771 6.51863 140.126 6.27961 139.576 5.80155C139.05 5.2996 138.787 4.64228 138.787 3.82959C138.787 3.0169 139.05 2.37153 139.576 1.89348C140.126 1.39152 140.771 1.14055 141.512 1.14055C142.301 1.14055 142.946 1.39152 143.448 1.89348C143.974 2.37153 144.237 3.0169 144.237 3.82959C144.237 4.64228 143.974 5.2996 143.448 5.80155C142.946 6.27961 142.301 6.51863 141.512 6.51863Z" fill="white"/>
<rect x="9.50122" y="14.9717" width="12.0111" height="12.0111" rx="1.61343" fill="white"/>
<rect x="21.1541" y="6.00977" width="8.42567" height="8.42567" rx="1.61343" fill="white"/>
<path d="M21.1528 12.5525L23.304 14.4348C23.304 14.4348 22.6155 14.4632 22.218 15.0585C21.8206 15.6539 21.5119 16.7656 21.5119 16.7656L19.2711 14.9729C19.2711 14.9729 20.4511 14.7396 20.8485 14.1442C21.2459 13.5489 21.1528 12.5525 21.1528 12.5525Z" fill="white"/>
<g opacity="0.2">
<rect x="14.4156" y="11.4043" width="8.62332" height="8.62332" rx="1.61343" transform="rotate(180 14.4156 11.4043)" fill="white"/>
<rect x="6.04968" y="17.7783" width="6.0492" height="6.0492" rx="1.61343" transform="rotate(180 6.04968 17.7783)" fill="white"/>
<path d="M6.05052 13.0749L4.50604 11.7235C4.50604 11.7235 5.00039 11.7031 5.28572 11.2757C5.57106 10.8483 5.79267 10.0501 5.79267 10.0501L7.40149 11.3372C7.40149 11.3372 6.55433 11.5047 6.26899 11.9321C5.98366 12.3595 6.05052 13.0749 6.05052 13.0749Z" fill="white"/>
</g>
</g>
<defs>
<clipPath id="clip0_3307_959">
<rect width="145" height="28.3459" fill="white" transform="translate(0 0.172852)"/>
</clipPath>
</defs>
</svg>
