<svg width="267" height="880" viewBox="0 0 267 880" fill="none" xmlns="http://www.w3.org/2000/svg">
<path d="M224.715 -402L266.564 -402L266.564 1039L263.866 1039L234.564 1039C217.996 1039 204.564 1025.57 204.564 1009L204.564 926.553C204.564 918.488 211.103 911.949 219.168 911.949L249.261 911.949C257.327 911.949 263.866 905.411 263.866 897.345L263.866 799.502C263.866 791.437 257.327 784.898 249.262 784.898L219.168 784.898C211.103 784.898 204.564 791.437 204.564 799.502L204.564 833.309C204.564 841.374 198.026 847.913 189.96 847.913L158.071 847.913L108.052 847.913C100.032 847.913 93.5128 841.445 93.4489 833.425L93.1817 799.91C93.1171 791.799 99.6742 785.189 107.785 785.189L143.022 785.189C151.066 785.189 157.595 778.685 157.626 770.641L158.016 667.396C158.046 659.352 164.575 652.847 172.62 652.847L249.262 652.847C257.327 652.847 263.866 646.309 263.866 638.243L263.866 530.796L263.866 48.1962C263.866 40.1307 257.327 33.5922 249.262 33.5922L172.675 33.5922C164.609 33.5922 158.071 40.1306 158.071 48.1962L158.071 178.689C158.071 186.754 151.532 193.293 143.467 193.293L15.1684 193.293C7.10288 193.293 0.564427 186.754 0.564428 178.689L0.564433 48.1962C0.564434 40.1307 7.10289 33.5922 15.1685 33.5922L104.84 33.5922C112.905 33.5922 119.444 27.0538 119.444 18.9882L119.444 -81.1798C119.444 -89.2453 125.982 -95.7838 134.048 -95.7838L180.111 -95.7838C188.176 -95.7838 194.715 -102.322 194.715 -110.388L194.715 -372C194.715 -388.569 208.146 -402 224.715 -402Z" fill="#111514"/>
</svg>
