<svg width="1441" height="266" viewBox="0 0 1441 266" fill="none" xmlns="http://www.w3.org/2000/svg">
<path d="M1441 224.15V266H0V263.301V234C0 217.431 13.4315 204 30 204H112.447C120.512 204 127.051 210.538 127.051 218.604V248.697C127.051 256.763 133.589 263.301 141.655 263.301H239.498C247.563 263.301 254.102 256.763 254.102 248.697V218.604C254.102 210.538 247.563 204 239.498 204H205.691C197.626 204 191.087 197.462 191.087 189.396V157.506V107.488C191.087 99.4679 197.555 92.9484 205.575 92.8845L239.09 92.6173C247.201 92.5527 253.811 99.1098 253.811 107.221V142.457C253.811 150.501 260.315 157.031 268.359 157.061L371.604 157.451C379.648 157.482 386.153 164.011 386.153 172.055V218.697C386.153 226.763 392.691 233.301 400.757 233.301H508.204H990.804C998.869 233.301 1005.41 226.763 1005.41 218.697V172.11C1005.41 164.045 998.869 157.506 990.804 157.506H860.311C852.246 157.506 845.707 150.968 845.707 142.902V14.604C845.707 6.53845 852.246 0 860.311 0H990.804C998.869 0 1005.41 6.53845 1005.41 14.604V104.275C1005.41 112.341 1011.95 118.879 1020.01 118.879H1120.18C1128.25 118.879 1134.78 125.418 1134.78 133.483V179.546C1134.78 187.612 1141.32 194.15 1149.39 194.15H1411C1427.57 194.15 1441 207.582 1441 224.15Z" fill="#0A0E0D"/>
</svg>
