<?xml version="1.0" standalone="no"?>
<!DOCTYPE svg PUBLIC "-//W3C//DTD SVG 20010904//EN"
 "http://www.w3.org/TR/2001/REC-SVG-20010904/DTD/svg10.dtd">
<svg version="1.0" xmlns="http://www.w3.org/2000/svg"
 width="300.000000pt" height="300.000000pt" viewBox="0 0 300.000000 300.000000"
 preserveAspectRatio="xMidYMid meet">
<metadata>
Created by potrace 1.10, written by Peter Selinger 2001-2011
</metadata>
<g transform="translate(0.000000,300.000000) scale(0.100000,-0.100000)"
fill="#000000" stroke="none">
<path d="M2220 2443 c0 -12 -6 -23 -12 -25 -9 -3 -8 -10 5 -23 17 -17 19 -17
32 1 7 10 10 21 6 24 -4 3 -13 14 -19 25 -11 20 -11 20 -12 -2z"/>
<path d="M2091 2340 c-1 -41 -16 -60 -45 -60 -17 0 -15 -4 12 -20 23 -14 32
-27 33 -47 1 -27 1 -27 10 5 7 23 20 38 42 47 25 11 28 14 11 15 -27 0 -44 21
-54 63 l-8 32 -1 -35z"/>
<path d="M962 2224 c-11 -12 -11 -17 1 -29 13 -13 16 -13 21 1 3 9 3 22 -1 29
-7 11 -10 10 -21 -1z"/>
<path d="M1451 2188 c-63 -11 -116 -50 -151 -111 -36 -62 -40 -112 -10 -120
16 -4 21 1 26 21 24 114 82 165 186 165 73 0 126 -32 157 -95 39 -82 24 -176
-42 -255 -22 -26 -55 -81 -73 -121 -26 -55 -42 -78 -69 -93 -41 -24 -41 -45 0
-42 40 3 64 29 101 109 18 39 46 87 63 107 95 108 103 277 18 365 -57 59 -129
84 -206 70z"/>
<path d="M1433 2091 c-61 -38 -79 -121 -43 -195 20 -42 20 -47 6 -68 -30 -43
-15 -99 29 -112 26 -7 66 14 76 40 6 19 5 21 -14 16 -12 -3 -25 -10 -28 -15
-4 -5 -15 -7 -24 -3 -19 7 -17 26 6 83 12 29 11 35 -9 62 -15 21 -22 44 -22
75 0 37 5 48 31 70 40 34 87 34 123 1 29 -26 30 -45 14 -165 -2 -17 2 -25 12
-25 20 0 44 103 36 150 -4 20 -19 50 -35 67 -36 41 -109 50 -158 19z"/>
<path d="M742 1491 c-19 -11 -11 -45 11 -49 9 -2 20 4 23 13 9 21 -16 47 -34
36z"/>
<path d="M830 1485 c-7 -8 -10 -22 -6 -30 7 -20 55 -20 62 0 7 17 -12 45 -31
45 -7 0 -18 -7 -25 -15z"/>
<path d="M2042 1473 c4 -35 43 -45 53 -14 9 28 -1 41 -31 41 -22 0 -25 -4 -22
-27z"/>
<path d="M2147 1494 c-4 -4 -7 -16 -7 -26 0 -14 6 -19 23 -16 14 2 22 10 22
23 0 20 -25 32 -38 19z"/>
<path d="M1343 1472 c-242 -1 -433 -6 -433 -11 0 -5 8 -12 17 -15 24 -9 1083
5 1083 14 0 16 -37 21 -135 18 -55 -2 -295 -4 -532 -6z"/>
<path d="M1070 1409 c0 -5 162 -9 411 -9 278 0 408 3 404 10 -8 14 -815 13
-815 -1z"/>
<path d="M1070 1380 c0 -5 4 -10 10 -12 27 -9 810 3 810 13 0 7 -136 9 -410 8
-225 0 -410 -5 -410 -9z"/>
<path d="M840 1135 c0 -69 3 -85 15 -85 10 0 15 11 15 35 0 31 3 35 25 35 37
0 39 -2 36 -37 -2 -26 1 -33 16 -33 16 0 18 9 18 85 0 74 -2 85 -17 85 -14 0
-18 -8 -18 -35 0 -32 -2 -35 -30 -35 -28 0 -30 3 -30 35 0 24 -5 35 -15 35
-12 0 -15 -16 -15 -85z"/>
<path d="M1050 1135 l0 -85 50 0 c38 0 50 4 50 15 0 10 -11 15 -35 15 -31 0
-35 3 -35 25 0 20 5 25 25 25 16 0 25 6 25 16 0 12 -7 15 -25 12 -19 -4 -25
-1 -25 13 0 14 7 19 30 19 20 0 30 5 30 15 0 11 -12 15 -45 15 l-45 0 0 -85z"/>
<path d="M1240 1180 c-6 -22 -20 -61 -30 -85 -19 -44 -19 -45 0 -45 10 0 22 9
25 20 4 14 15 20 35 20 20 0 31 -6 35 -20 3 -11 14 -20 24 -20 17 0 16 8 -12
85 -36 99 -59 112 -77 45z m44 -32 c9 -35 8 -38 -14 -38 -11 0 -20 3 -20 8 0
19 13 52 20 52 4 0 10 -10 14 -22z"/>
<path d="M1400 1136 c0 -76 2 -86 18 -86 15 0 17 6 14 36 -4 31 -2 35 14 32
11 -2 22 -17 28 -36 6 -21 15 -32 27 -32 23 0 23 -1 3 38 -13 28 -13 34 0 54
13 19 13 28 3 48 -10 21 -21 26 -60 28 l-47 3 0 -85z m68 55 c21 -13 10 -46
-16 -49 -17 -3 -22 1 -22 21 0 35 13 45 38 28z"/>
<path d="M1718 1135 c-3 -78 -1 -85 16 -85 17 0 18 5 12 50 -7 55 6 68 26 25
15 -33 23 -32 38 5 19 46 29 36 23 -25 -5 -50 -4 -55 14 -55 18 0 20 7 22 66
1 36 -1 75 -4 85 -10 30 -34 22 -52 -16 -9 -19 -20 -35 -23 -35 -4 0 -15 16
-26 35 -31 57 -42 45 -46 -50z"/>
<path d="M1950 1135 l0 -85 50 0 c38 0 50 4 50 15 0 10 -11 15 -35 15 -31 0
-35 3 -35 25 0 20 5 25 25 25 16 0 25 6 25 16 0 12 -6 15 -25 10 -20 -5 -25
-3 -25 14 0 16 7 20 30 20 20 0 30 5 30 15 0 11 -12 15 -45 15 l-45 0 0 -85z"/>
</g>
</svg>
